<svg width="415" height="52" viewBox="0 0 415 52" fill="none" xmlns="http://www.w3.org/2000/svg" preserveAspectRatio="none">
<path d="M7.41071 0L0 0L0 52H7.41071L7.41071 0Z" fill="#F8F8F8"/>
<path d="M14.8211 0L11.1157 0L11.1157 52H14.8211L14.8211 0Z" fill="#F8F8F8"/>
<path d="M25.9375 0L22.2322 0L22.2322 52H25.9375L25.9375 0Z" fill="#F8F8F8"/>
<path d="M44.4646 0L40.7593 0L40.7593 52H44.4646L44.4646 0Z" fill="#F8F8F8"/>
<path d="M51.875 0L48.1697 0L48.1697 52H51.875L51.875 0Z" fill="#F8F8F8"/>
<path d="M70.4013 0L62.9906 0L62.9906 52H70.4013L70.4013 0Z" fill="#F8F8F8"/>
<path d="M88.9284 0L81.5177 0L81.5177 52H88.9284L88.9284 0Z" fill="#F8F8F8"/>
<path d="M103.75 0L92.6342 0L92.6342 52H103.75L103.75 0Z" fill="#F8F8F8"/>
<path d="M111.16 0L107.455 0L107.455 52H111.16L111.16 0Z" fill="#F8F8F8"/>
<path d="M125.982 0L122.277 0L122.277 52H125.982L125.982 0Z" fill="#F8F8F8"/>
<path d="M137.098 0L129.687 0V52H137.098V0Z" fill="#F8F8F8"/>
<path d="M151.92 0L148.214 0V52H151.92V0Z" fill="#F8F8F8"/>
<path d="M166.741 0L163.035 0V52H166.741V0Z" fill="#F8F8F8"/>
<path d="M185.268 0L177.857 0V52H185.268V0Z" fill="#F8F8F8"/>
<path d="M200.089 0L196.384 0V52H200.089V0Z" fill="#F8F8F8"/>
<path d="M214.911 0L203.795 0V52H214.911V0Z" fill="#F8F8F8"/>
<path d="M222.321 0L218.615 0V52H222.321V0Z" fill="#F8F8F8"/>
<path d="M240.848 0L233.437 0V52H240.848V0Z" fill="#F8F8F8"/>
<path d="M248.258 0L244.553 0V52H248.258V0Z" fill="#F8F8F8"/>
<path d="M266.785 0L259.375 0V52H266.785V0Z" fill="#F8F8F8"/>
<path d="M274.196 0L270.49 0V52H274.196V0Z" fill="#F8F8F8"/>
<path d="M292.723 0L285.312 0V52H292.723V0Z" fill="#F8F8F8"/>
<path d="M307.544 0L303.839 0V52H307.544V0Z" fill="#F8F8F8"/>
<path d="M322.366 0L311.25 0V52H322.366V0Z" fill="#F8F8F8"/>
<path d="M329.777 0L326.071 0V52H329.777V0Z" fill="#F8F8F8"/>
<path d="M344.598 0L337.187 0V52H344.598V0Z" fill="#F8F8F8"/>
<path d="M359.419 0L355.714 0V52H359.419V0Z" fill="#F8F8F8"/>
<path d="M374.241 0L366.83 0V52H374.241V0Z" fill="#F8F8F8"/>
<path d="M396.473 0L385.357 0V52H396.473V0Z" fill="#F8F8F8"/>
<path d="M403.883 0L400.178 0V52H403.883V0Z" fill="#F8F8F8"/>
<path d="M415 0L407.589 0V52H415V0Z" fill="#F8F8F8"/>
</svg>
