<svg width="177" height="177" viewBox="0 0 177 177" fill="none" xmlns="http://www.w3.org/2000/svg">
<path d="M114.946 103.97C122.782 106.678 129.84 110.452 136.121 115.292C142.401 120.132 147.759 125.778 152.196 132.231C156.632 138.685 160.032 145.685 162.394 153.233C164.756 160.781 165.938 168.703 165.938 177H154.875C154.875 167.551 153.204 158.793 149.862 150.727C146.521 142.66 141.854 135.631 135.861 129.639C129.869 123.646 122.869 119.008 114.86 115.724C106.851 112.44 98.0645 110.74 88.5 110.625C82.335 110.625 76.4004 111.403 70.6963 112.958C64.9922 114.514 59.6914 116.704 54.7939 119.527C49.8965 122.35 45.4312 125.778 41.3979 129.812C37.3647 133.845 33.9365 138.31 31.1133 143.208C28.29 148.105 26.0718 153.435 24.4585 159.196C22.8452 164.958 22.0674 170.893 22.125 177H11.0625C11.0625 168.703 12.2725 160.781 14.6924 153.233C17.1123 145.685 20.5405 138.713 24.9771 132.318C29.4136 125.922 34.772 120.333 41.0522 115.551C47.3325 110.769 54.3906 106.938 62.2266 104.057C57.7324 101.637 53.6992 98.6982 50.127 95.2412C46.5547 91.7842 43.5298 87.9526 41.0522 83.7466C38.5747 79.5405 36.6445 75.0176 35.2617 70.1777C33.8789 65.3379 33.1875 60.3828 33.1875 55.3125C33.1875 47.6494 34.6279 40.4761 37.5088 33.7925C40.3896 27.1089 44.3364 21.2319 49.3491 16.1616C54.3618 11.0913 60.21 7.14453 66.8936 4.32129C73.5771 1.49805 80.7793 0.0576172 88.5 0C96.1631 0 103.336 1.44043 110.02 4.32129C116.704 7.20215 122.581 11.1489 127.651 16.1616C132.721 21.1743 136.668 27.0225 139.491 33.7061C142.314 40.3896 143.755 47.5918 143.812 55.3125C143.812 60.3828 143.15 65.3091 141.825 70.0913C140.5 74.8735 138.569 79.3677 136.034 83.5737C133.499 87.7798 130.474 91.6113 126.959 95.0684C123.445 98.5254 119.44 101.493 114.946 103.97ZM44.25 55.3125C44.25 61.4199 45.4023 67.1528 47.707 72.5112C50.0117 77.8696 53.1807 82.5366 57.2139 86.5122C61.2471 90.4878 65.9429 93.6567 71.3013 96.019C76.6597 98.3813 82.3926 99.5625 88.5 99.5625C94.6074 99.5625 100.34 98.4102 105.699 96.1055C111.057 93.8008 115.724 90.6318 119.7 86.5986C123.675 82.5654 126.844 77.8696 129.207 72.5112C131.569 67.1528 132.75 61.4199 132.75 55.3125C132.75 49.2051 131.598 43.4722 129.293 38.1138C126.988 32.7554 123.819 28.0884 119.786 24.1128C115.753 20.1372 111.057 16.9683 105.699 14.606C100.34 12.2437 94.6074 11.0625 88.5 11.0625C82.3926 11.0625 76.6597 12.2148 71.3013 14.5195C65.9429 16.8242 61.2759 19.9932 57.3003 24.0264C53.3247 28.0596 50.1558 32.7554 47.7935 38.1138C45.4312 43.4722 44.25 49.2051 44.25 55.3125Z" fill="#F8F8F8"/>
</svg>
