<svg width="118" height="118" viewBox="0 0 118 118" fill="none" xmlns="http://www.w3.org/2000/svg">
<path d="M59 73.6668C55.1102 73.6668 51.3797 72.1216 48.6291 69.3711C45.8786 66.6205 44.3334 62.89 44.3334 59.0002C44.3334 50.8602 50.86 44.3335 59 44.3335C67.14 44.3335 73.6667 50.8602 73.6667 59.0002C73.6667 62.89 72.1215 66.6205 69.3709 69.3711C66.6204 72.1216 62.8899 73.6668 59 73.6668ZM59 0.333496C43.4407 0.333496 28.5186 6.51443 17.5164 17.5166C6.51431 28.5187 0.333374 43.4408 0.333374 59.0002C0.333374 74.5595 6.51431 89.4816 17.5164 100.484C28.5186 111.486 43.4407 117.667 59 117.667C74.5594 117.667 89.4815 111.486 100.484 100.484C111.486 89.4816 117.667 74.5595 117.667 59.0002C117.667 43.4408 111.486 28.5187 100.484 17.5166C89.4815 6.51443 74.5594 0.333496 59 0.333496Z" fill="#F8F8F8"/>
</svg>
