<svg width="176" height="176" viewBox="0 0 176 176" fill="none" xmlns="http://www.w3.org/2000/svg">
<path d="M88 102.667C84.1102 102.667 80.3797 101.122 77.6291 98.3711C74.8786 95.6205 73.3334 91.89 73.3334 88.0002C73.3334 79.8602 79.86 73.3335 88 73.3335C96.14 73.3335 102.667 79.8602 102.667 88.0002C102.667 91.89 101.121 95.6205 98.3709 98.3711C95.6204 101.122 91.8899 102.667 88 102.667ZM88 29.3335C72.4407 29.3335 57.5186 35.5144 46.5164 46.5166C35.5143 57.5187 29.3334 72.4408 29.3334 88.0002C29.3334 103.56 35.5143 118.482 46.5164 129.484C57.5186 140.486 72.4407 146.667 88 146.667C103.559 146.667 118.482 140.486 129.484 129.484C140.486 118.482 146.667 103.56 146.667 88.0002C146.667 72.4408 140.486 57.5187 129.484 46.5166C118.482 35.5144 103.559 29.3335 88 29.3335Z" fill="#F8F8F8"/>
</svg>
